<svg xmlns="http://www.w3.org/2000/svg" viewBox="0 0 1200 1500">
  <defs>
    <linearGradient id="bg" x1="0" y1="0" x2="1" y2="1">
      <stop offset="0%" stop-color="#EFE3D3"/><stop offset="100%" stop-color="#DCCBB2" stop-opacity="0.7"/>
    </linearGradient>
    <filter id="soft"><feGaussianBlur stdDeviation="46"/></filter>
  </defs>
  <rect width="1200" height="1500" fill="url(#bg)"/><circle cx="423" cy="673" r="389" fill="#5C4028" opacity="0.58" filter="url(#soft)"/><circle cx="1013" cy="714" r="458" fill="#8A6642" opacity="0.56" filter="url(#soft)"/><circle cx="617" cy="1203" r="301" fill="#DCCBB2" opacity="0.73" filter="url(#soft)"/><circle cx="441" cy="923" r="487" fill="#5C4028" opacity="0.44" filter="url(#soft)"/><circle cx="340" cy="343" r="414" fill="#8A6642" opacity="0.46" filter="url(#soft)"/><path d="M 177 11 Q 374 1244 3 414" stroke="#DCCBB2" stroke-width="8" fill="none" opacity="0.5" stroke-linecap="round"/><path d="M 1016 209 Q 410 305 1094 923" stroke="#8A6642" stroke-width="13" fill="none" opacity="0.5" stroke-linecap="round"/><path d="M 872 592 Q 288 860 779 353" stroke="#DCCBB2" stroke-width="27" fill="none" opacity="0.5" stroke-linecap="round"/><path d="M 277 621 Q 686 622 5 289" stroke="#8A6642" stroke-width="14" fill="none" opacity="0.5" stroke-linecap="round"/><path d="M 239 27 Q 911 1360 759 69" stroke="#DCCBB2" stroke-width="21" fill="none" opacity="0.5" stroke-linecap="round"/><g opacity="0.9">
    <path d="M 485.4936 433.25914747575007
             C 622.73345 433.25914747575007, 655.671014 628.758, 636.457435 738.2373574135801
             C 622.73345 832.07680662522, 617.243856 824.25685252425, 485.4936 824.25685252425
             C 353.74334400000004 824.25685252425, 348.25375 832.07680662522, 334.529765 738.2373574135801
             C 315.316186 628.758, 348.25375 433.25914747575007, 485.4936 433.25914747575007 Z"
          fill="#211E1B" opacity="0.82"/>
    <path d="M 392.170502 558.3784130912701 Q 485.4936 495.81878028351 578.816698 558.3784130912701"
          stroke="#5C4028" stroke-width="14" fill="none" opacity="0.85"/>
    <circle cx="485.4936" cy="675.67772460582" r="44" fill="#EFE3D3" opacity="0.25"/>
  </g>
</svg>