<svg xmlns="http://www.w3.org/2000/svg" viewBox="0 0 1200 1500">
  <defs>
    <linearGradient id="bg" x1="0" y1="0" x2="1" y2="1">
      <stop offset="0%" stop-color="#F1E8DC"/><stop offset="100%" stop-color="#E7DACA" stop-opacity="0.7"/>
    </linearGradient>
    <filter id="soft"><feGaussianBlur stdDeviation="46"/></filter>
  </defs>
  <rect width="1200" height="1500" fill="url(#bg)"/><circle cx="313" cy="779" r="350" fill="#C4623A" opacity="0.74" filter="url(#soft)"/><circle cx="550" cy="573" r="300" fill="#E08A63" opacity="0.57" filter="url(#soft)"/><circle cx="510" cy="918" r="443" fill="#E7DACA" opacity="0.50" filter="url(#soft)"/><path d="M 98 520 Q 304 1169 290 160" stroke="#C4623A" stroke-width="25" fill="none" opacity="0.5" stroke-linecap="round"/><path d="M 1163 443 Q 1042 567 680 736" stroke="#E7DACA" stroke-width="27" fill="none" opacity="0.5" stroke-linecap="round"/><path d="M 444 7 Q 163 167 627 243" stroke="#E08A63" stroke-width="31" fill="none" opacity="0.5" stroke-linecap="round"/><g opacity="0.9">
    <path d="M 671.5776 662.506852743
             C 819.4332499999999 662.506852743, 854.918606 850.251, 834.218815 955.38772246392
             C 819.4332499999999 1045.50491314728, 813.519024 1037.9951472569999, 671.5776 1037.9951472569999
             C 529.636176 1037.9951472569999, 523.72195 1045.50491314728, 508.936385 955.38772246392
             C 488.23659399999997 850.251, 523.72195 662.506852743, 671.5776 662.506852743 Z"
          fill="#211E1B" opacity="0.82"/>
    <path d="M 571.035758 782.66310698748 Q 671.5776 722.58497986524 772.1194419999999 782.66310698748"
          stroke="#E7DACA" stroke-width="14" fill="none" opacity="0.85"/>
    <circle cx="671.5776" cy="895.3095953416799" r="47" fill="#F1E8DC" opacity="0.25"/>
  </g>
</svg>