<svg xmlns="http://www.w3.org/2000/svg" viewBox="0 0 1200 1500">
  <defs>
    <linearGradient id="bg" x1="0" y1="0" x2="1" y2="1">
      <stop offset="0%" stop-color="#F5EDDD"/><stop offset="100%" stop-color="#EFE3D3" stop-opacity="0.7"/>
    </linearGradient>
    <filter id="soft"><feGaussianBlur stdDeviation="46"/></filter>
  </defs>
  <rect width="1200" height="1500" fill="url(#bg)"/><circle cx="965" cy="706" r="269" fill="#B98A38" opacity="0.60" filter="url(#soft)"/><circle cx="713" cy="1058" r="195" fill="#D9B36A" opacity="0.65" filter="url(#soft)"/><circle cx="515" cy="953" r="381" fill="#EFE3D3" opacity="0.52" filter="url(#soft)"/><circle cx="363" cy="796" r="286" fill="#B98A38" opacity="0.59" filter="url(#soft)"/><circle cx="598" cy="1093" r="436" fill="#D9B36A" opacity="0.49" filter="url(#soft)"/><path d="M 1134 936 Q 655 405 1014 69" stroke="#EFE3D3" stroke-width="15" fill="none" opacity="0.5" stroke-linecap="round"/><path d="M 1135 747 Q 776 661 366 485" stroke="#B98A38" stroke-width="18" fill="none" opacity="0.5" stroke-linecap="round"/><path d="M 1097 196 Q 342 141 685 553" stroke="#D9B36A" stroke-width="12" fill="none" opacity="0.5" stroke-linecap="round"/><path d="M 680 782 Q 153 55 207 1369" stroke="#B98A38" stroke-width="11" fill="none" opacity="0.5" stroke-linecap="round"/><path d="M 109 173 Q 1002 1328 487 46" stroke="#B98A38" stroke-width="34" fill="none" opacity="0.5" stroke-linecap="round"/><g opacity="0.9">
    <path d="M 680.304 421.95205471400004
             C 824.5723 421.95205471400004, 859.196692 641.589, 838.99913 764.58568936016
             C 824.5723 870.01142309744, 818.801568 861.2259452860001, 680.304 861.2259452860001
             C 541.806432 861.2259452860001, 536.0356999999999 870.01142309744, 521.6088699999999 764.58568936016
             C 501.41130799999996 641.589, 536.0356999999999 421.95205471400004, 680.304 421.95205471400004 Z"
          fill="#211E1B" opacity="0.82"/>
    <path d="M 582.201556 562.5196996970401 Q 680.304 492.23587720552007 778.406444 562.5196996970401"
          stroke="#D9B36A" stroke-width="14" fill="none" opacity="0.85"/>
    <circle cx="680.304" cy="694.30186686864" r="46" fill="#F5EDDD" opacity="0.25"/>
  </g>
</svg>