<svg xmlns="http://www.w3.org/2000/svg" viewBox="0 0 1200 1500">
  <defs>
    <linearGradient id="bg" x1="0" y1="0" x2="1" y2="1">
      <stop offset="0%" stop-color="#EFE3D3"/><stop offset="100%" stop-color="#DCCBB2" stop-opacity="0.7"/>
    </linearGradient>
    <filter id="soft"><feGaussianBlur stdDeviation="46"/></filter>
  </defs>
  <rect width="1200" height="1500" fill="url(#bg)"/><circle cx="893" cy="447" r="415" fill="#5C4028" opacity="0.55" filter="url(#soft)"/><circle cx="716" cy="1109" r="308" fill="#8A6642" opacity="0.65" filter="url(#soft)"/><circle cx="421" cy="599" r="321" fill="#DCCBB2" opacity="0.71" filter="url(#soft)"/><path d="M 1172 21 Q 880 348 931 917" stroke="#8A6642" stroke-width="22" fill="none" opacity="0.5" stroke-linecap="round"/><path d="M 1140 956 Q 1171 1058 195 1377" stroke="#8A6642" stroke-width="15" fill="none" opacity="0.5" stroke-linecap="round"/><path d="M 1146 541 Q 1129 941 389 225" stroke="#5C4028" stroke-width="24" fill="none" opacity="0.5" stroke-linecap="round"/><path d="M 564 948 Q 967 898 305 1034" stroke="#8A6642" stroke-width="26" fill="none" opacity="0.5" stroke-linecap="round"/><g opacity="0.9">
    <path d="M 595.7112 681.32198338875
             C 703.6750499999999 681.32198338875, 729.586374 812.3820000000001, 714.4714349999999 885.7756093023
             C 703.6750499999999 948.6844172757001, 699.356496 943.4420166112501, 595.7112 943.4420166112501
             C 492.06590399999993 943.4420166112501, 487.74735 948.6844172757001, 476.95096499999994 885.7756093023
             C 461.83602599999995 812.3820000000001, 487.74735 681.32198338875, 595.7112 681.32198338875 Z"
          fill="#211E1B" opacity="0.82"/>
    <path d="M 522.2957819999999 765.2003940199501 Q 595.7112 723.26118870435 669.126618 765.2003940199501"
          stroke="#5C4028" stroke-width="14" fill="none" opacity="0.85"/>
    <circle cx="595.7112" cy="843.8364039867" r="35" fill="#EFE3D3" opacity="0.25"/>
  </g>
</svg>